:SAMPLES-PER-SECOND 30
:FULLY-SPECIFIED
:DEGREES
517
root  4.58865 36.8223 -1.07862 74.0896 -85.9504 -70.679
RightUpLeg  -18.8628 -10.904 -17.9104
RightLeg  16.2088 -2.32759 -1.07804
RightFoot  6.34204 -3.96556 25.3866
RightToes  -2.32832e-010 0 -3.6325e-017
Spine  24.0759 -3.86932 -6.98694
Spine1  1.04713 -8.58462 16.7585
HEad  -31.6949 13.1457 -13.6144
LeftShoulder1  1.5156 -5.0061 -10.5432
LeftArm  -1.62099 -9.83476 -9.8123
LeftForeArm  44.0427 6.97937 -14.6336
LeftHand  0.398266 7.99339 18.3242
RightShoulder  0.485547 -0.828722 11.0437
RightArm  -23.6173 -5.93802 25.6208
RightForeArm  18.735 3.78873 8.57544
RightHand  -0.0429733 -5.03173 -7.18238
LeftUpLeg  -10.8083 13.2022 28.5741
LeftLeg  12.9797 0.460444 2.22195
LeftFoot  1.18006 3.55086 -31.6862
LeftToes  2.2737e-010 4.38529e-011 2.18788e-011
518
root  4.49545 36.5133 -0.71477 -48.1945 -87.62 52.2134
RightUpLeg  -23.1664 -11.8695 -23.453
RightLeg  20.5628 1.33418 0.362956
RightFoot  5.09443 -3.60049 24.8138
RightToes  -2.32832e-010 0 -3.6325e-017
Spine  24.0599 -2.84936 -6.25133
Spine1  -2.36598 -5.40529 8.24782
HEad  -29.1676 10.1152 -11.066
LeftShoulder1  1.28262 -3.96118 -9.84519
LeftArm  -2.78364 -8.51081 -9.00296
LeftForeArm  44.2464 7.15557 -14.3593
LeftHand  0.350018 7.65733 18.5248
RightShoulder  0.417164 -1.07539 9.98205
RightArm  -24.0999 -7.40234 23.3734
RightForeArm  13.5493 3.54446 8.16718
RightHand  -0.0649656 -4.61605 -6.79971
LeftUpLeg  -11.1353 13.168 23.6711
LeftLeg  16.8838 2.73038 1.53072
LeftFoot  -1.23677 2.88134 -31.7897
LeftToes  2.2737e-010 4.38529e-011 2.18788e-011
519
root  4.45896 36.0704 -0.505964 -126.919 -82.4575 131.854
RightUpLeg  -28.637 -10.4643 -27.8446
RightLeg  24.8794 3.30945 1.43863
RightFoot  4.05902 -3.32626 24.4651
RightToes  -2.32832e-010 0 -3.6325e-017
Spine  25.1765 -0.962095 -5.47111
Spine1  -7.5429 -1.76893 -0.259493
HEad  -26.6491 6.86427 -8.61173
LeftShoulder1  1.01497 -2.58688 -9.286
LeftArm  -4.88665 -8.72859 -7.63562
LeftForeArm  44.6855 7.37016 -13.8939
LeftHand  0.375019 7.87622 18.0873
RightShoulder  0.399594 -1.16042 9.84397
RightArm  -23.1206 -8.48951 19.4994
RightForeArm  10.6543 2.1124 8.0573
RightHand  -0.0706058 -4.50652 -6.77703
LeftUpLeg  -11.3972 16.3931 19.5813
LeftLeg  20.2474 2.2216 1.21576
LeftFoot  -3.81563 2.28567 -33.5112
LeftToes  2.2737e-010 4.38529e-011 2.18788e-011
520
root  4.4786 35.7288 -0.406961 -136.232 -81.0557 142.487
RightUpLeg  -32.1989 -8.20192 -27.4922
RightLeg  26.5852 2.85906 1.33836
RightFoot  3.73329 -3.27538 24.5983
RightToes  -2.32832e-010 0 -3.6325e-017
Spine  25.683 1.09929 -3.22743
Spine1  -10.0883 1.08325 -2.5569
HEad  -26.5548 3.60648 -9.68581
LeftShoulder1  0.809538 -1.31179 -9.43354
LeftArm  -6.5739 -8.25007 -7.8378
LeftForeArm  44.6292 7.55625 -13.2881
LeftHand  0.489256 8.49934 18.7167
RightShoulder  0.35637 -1.44653 10.1625
RightArm  -21.3464 -6.54403 13.5064
RightForeArm  8.89564 0.311221 8.41651
RightHand  -0.061558 -4.6861 -6.89285
LeftUpLeg  -13.3934 18.1977 20.1883
LeftLeg  24.1727 1.69968 1.18123
LeftFoot  -6.04391 1.68217 -34.521
LeftToes  2.2737e-010 4.38529e-011 2.18788e-011
521
root  4.53204 35.6228 -0.300795 -177.742 -83.9461 -174.341
RightUpLeg  -32.0372 -8.91435 -21.2892
RightLeg  24.814 1.85811 0.719454
RightFoot  4.33281 -3.54217 25.5466
RightToes  -2.32832e-010 0 -3.6325e-017
Spine  24.6282 2.60535 0.147516
Spine1  -9.19052 2.47238 5.32422
HEad  -28.0166 1.57051 -14.4715
LeftShoulder1  0.753922 -0.918172 -9.69376
LeftArm  -6.22165 -4.06793 -11.8859
LeftForeArm  43.2313 7.63337 -12.9498
LeftHand  0.475217 8.19427 20.0605
RightShoulder  0.23329 -2.09094 9.22507
RightArm  -20.8967 -1.16517 6.8541
RightForeArm  7.04551 -1.04478 8.8081
RightHand  -0.0427611 -5.00929 -6.14366
LeftUpLeg  -17.7447 16.8005 26.0302
LeftLeg  28.2084 1.79769 1.39342
LeftFoot  -7.35186 1.25658 -33.8742
LeftToes  2.2737e-010 4.38529e-011 2.18788e-011
522
root  4.58183 35.6754 -0.170524 103.106 -82.9537 -94.6978
RightUpLeg  -28.3833 -13.1917 -13.5635
RightLeg  20.8435 1.90516 0.589775
RightFoot  5.40853 -4.04076 27.2198
RightToes  -2.32832e-010 0 -3.6325e-017
Spine  24.3215 3.31818 2.21299
Spine1  -8.73725 2.05629 19.0638
HEad  -28.7098 1.58186 -18.8178
LeftShoulder1  0.832692 -1.30494 -9.97943
LeftArm  -4.95029 2.91225 -17.2879
LeftForeArm  42.353 7.65529 -12.9355
LeftHand  0.30718 7.12255 21.032
RightShoulder  0.119827 -2.66213 6.84598
RightArm  -23.2004 5.6921 1.75875
RightForeArm  6.34322 -2.16989 8.58257
RightHand  -0.0247974 -5.37929 -4.87904
LeftUpLeg  -21.7601 13.139 33.3198
LeftLeg  30.4121 2.01371 1.62426
LeftFoot  -7.60427 1.14627 -32.9059
LeftToes  2.2737e-010 4.38529e-011 2.18788e-011
523
root  4.65288 35.7786 -0.0964913 78.8255 -79.2282 -71.4635
RightUpLeg  -24.297 -16.4974 -10.6646
RightLeg  17.9383 1.81354 0.491018
RightFoot  6.10252 -4.4082 28.4688
RightToes  -2.32832e-010 0 -3.6325e-017
Spine  26.2115 3.40664 1.75509
Spine1  -10.1136 1.36502 27.9787
HEad  -28.7885 2.34583 -18.6851
LeftShoulder1  0.990441 -1.93302 -10.9992
LeftArm  -3.56226 8.47538 -18.7701
LeftForeArm  42.9667 7.63192 -13.0961
LeftHand  0.287308 6.93111 21.9344
RightShoulder  0.0765278 -2.89476 5.04793
RightArm  -26.6895 11.1704 -0.476095
RightForeArm  6.94564 -2.78472 7.9167
RightHand  -0.0233778 -5.4434 -4.69699
LeftUpLeg  -23.095 9.03115 36.6381
LeftLeg  30.3186 2.54619 1.95202
LeftFoot  -7.21503 1.25617 -32.8185
LeftToes  2.2737e-010 4.38529e-011 2.18788e-011
524
root  4.78746 35.8187 -0.0363012 68.7652 -80.916 -62.1679
RightUpLeg  -23.5903 -14.9945 -13.729
RightLeg  18.6433 -0.0803813 -0.226004
RightFoot  6.00342 -4.34587 28.2262
RightToes  -2.32832e-010 0 -3.6325e-017
Spine  27.7322 3.18159 0.600118
Spine1  -10.3439 1.16119 25.9838
HEad  -30.0692 1.75653 -14.1982
LeftShoulder1  1.0573 -2.04279 -11.9378
LeftArm  -2.39459 9.97292 -16.0794
LeftForeArm  43.3818 7.60632 -13.2393
LeftHand  0.473014 7.80158 22.8974
RightShoulder  0.095482 -2.76191 5.19089
RightArm  -28.5847 13.219 -0.311484
RightForeArm  6.66096 -2.29053 7.4952
RightHand  -0.0482781 -4.87604 -5.86549
LeftUpLeg  -22.7916 7.04323 34.2272
LeftLeg  29.8307 3.2633 2.36519
LeftFoot  -6.84391 1.36639 -32.9004
LeftToes  2.2737e-010 4.38529e-011 2.18788e-011
525
root  4.94389 35.7771 0.035685 77.558 -86.4641 -70.3849
RightUpLeg  -26.4137 -12.714 -19.5841
RightLeg  21.4637 -1.14877 -0.703005
RightFoot  5.7239 -4.07788 26.9814
RightToes  -2.32832e-010 0 -3.6325e-017
Spine  27.1608 2.62046 0.415471
Spine1  -8.81007 1.36103 15.2381
HEad  -32.0878 -0.429125 -8.46575
LeftShoulder1  0.984641 -1.8435 -11.2152
LeftArm  -2.64676 8.71031 -13.3713
LeftForeArm  42.2901 7.6448 -13.1973
LeftHand  0.53851 8.13683 22.8314
RightShoulder  0.149589 -2.38584 5.7796
RightArm  -28.245 11.7606 1.42467
RightForeArm  4.97245 -1.29222 7.45402
RightHand  -0.0857829 -4.23197 -6.89154
LeftUpLeg  -22.5122 9.01819 28.0328
LeftLeg  29.2657 2.83967 2.07041
LeftFoot  -6.5039 1.42617 -32.0668
LeftToes  2.2737e-010 4.38529e-011 2.18788e-011
526
root  5.06377 35.7596 0.097259 -53.1735 -86.4545 61.5754
RightUpLeg  -29.4953 -13.6473 -25.9534
RightLeg  23.1467 0.260634 -0.0940644
RightFoot  5.84904 -4.03423 26.5155
RightToes  -2.32832e-010 0 -3.6325e-017
Spine  26.2693 1.79203 0.878215
Spine1  -8.40044 2.07253 1.75414
HEad  -32.3992 -3.2063 -3.81878
LeftShoulder1  0.861936 -1.59261 -9.53054
LeftArm  -3.84478 6.55862 -11.5062
LeftForeArm  40.8042 7.69833 -13.0307
LeftHand  0.419099 7.65712 21.7289
RightShoulder  0.209087 -1.87981 5.15164
RightArm  -26.9732 8.52105 4.07175
RightForeArm  3.94271 -1.38792 7.41759
RightHand  -0.087234 -4.19955 -6.75022
LeftUpLeg  -22.2954 13.4989 20.3922
LeftLeg  27.3041 0.811817 0.815898
LeftFoot  -5.80345 1.56542 -30.9438
LeftToes  2.2737e-010 4.38529e-011 2.18788e-011
